<svg width="209" height="35" viewBox="0 0 209 35" fill="none" xmlns="http://www.w3.org/2000/svg">
<g clip-path="url(#clip0_1_5593)">
<path d="M56.8259 9.17969V34.2747H50.9844V9.17969H56.8259Z" fill="#231F20"/>
<path d="M69.1545 14.5443V34.2734H63.3129V14.5443H60.8672V9.17842H63.3129V0H69.1545V9.17842H73.6251V14.5443H69.1545Z" fill="#231F20"/>
<path d="M31.2556 34.2747V22.5559C31.2556 14.4509 33.5656 14.0232 36.1896 14.0232C38.3927 14.0232 41.1524 14.2713 41.1524 20.6489V34.2747H46.994V19.2191C46.994 15.3434 46.3976 13.616 45.4434 12.2451C44.6689 11.173 42.8908 9.17969 38.2433 9.17969H25.4141V34.2747H31.2556Z" fill="#231F20"/>
<path d="M15.6163 9.17969V22.7725C15.6163 24.2627 15.5588 25.9901 14.5443 27.3035C13.7697 28.3152 12.3987 29.0308 10.7289 29.0308C9.05915 29.0308 7.68821 28.3152 6.91363 27.3035C5.90188 25.9901 5.84156 24.2627 5.84156 22.7725V9.17969H0V22.9494C0 26.1697 0.356443 28.8513 2.68155 31.1764C4.94771 33.5015 8.0474 34.2747 10.6097 34.2747H21.4579V9.17969H15.6163Z" fill="#231F20"/>
<path d="M81.5469 9.16708H85.9037V11.8294C87.2952 9.77304 89.4736 8.5625 92.136 8.5625C96.6738 8.5625 98.4889 11.7691 98.9729 12.6164C101.393 8.80516 104.842 8.5625 106.536 8.5625C113.979 8.5625 114.704 14.7948 114.704 18.3647V34.2771H110.348V19.0296C110.348 16.1863 109.984 12.434 105.87 12.434C100.848 12.434 100.304 17.2748 100.304 20.2991V34.2758H95.9472V19.3915C95.9472 17.6367 96.0075 12.434 91.4094 12.434C86.448 12.434 85.9037 17.5764 85.9037 20.6021V34.2758H81.5469V9.16708Z" fill="#231F20"/>
<path d="M138.97 9.16708H143.327V34.2771H138.97V30.7676C137.518 32.643 134.795 35.0024 130.378 35.0024C124.025 35.0024 118.156 30.5249 118.156 21.692C118.156 12.859 123.965 8.5625 130.378 8.5625C135.219 8.5625 137.821 11.2249 138.97 12.737V9.16708ZM122.634 21.692C122.634 27.077 125.659 31.1308 130.862 31.1308C136.065 31.1308 139.212 26.7137 139.212 21.7523C139.212 15.2787 134.735 12.434 130.862 12.434C126.566 12.434 122.634 15.5803 122.634 21.692Z" fill="#231F20"/>
<path d="M190.253 27.8639C189.527 29.2554 188.438 30.7676 187.167 31.9178C184.868 33.9755 182.025 35.0037 178.817 35.0037C172.767 35.0037 166.414 31.1925 166.414 21.8743C166.414 14.3712 171.012 8.5625 178.576 8.5625C183.477 8.5625 186.563 10.9822 188.075 13.1606C189.649 15.3994 190.556 19.2723 190.434 22.5995H170.892C170.952 27.8036 174.522 31.1309 178.879 31.1309C180.936 31.1309 182.569 30.5263 184.021 29.3157C185.171 28.3479 186.079 27.077 186.623 25.8665L190.253 27.8625V27.8639ZM185.957 18.9693C185.23 15.0361 182.266 12.434 178.576 12.434C174.885 12.434 171.859 15.217 171.195 18.9693H185.958H185.957Z" fill="#231F20"/>
<path d="M194.289 9.16708H198.646V11.8898C199.07 11.2249 200.945 8.5625 204.334 8.5625C205.665 8.5625 207.117 9.04644 208.207 9.5907L206.149 13.5239C205.181 12.8576 204.274 12.6767 203.607 12.6767C201.853 12.6767 200.764 13.4033 200.098 14.2491C199.371 15.217 198.646 16.9115 198.646 21.0257V34.2758H194.289V9.16708Z" fill="#231F20"/>
<path d="M166.405 9.16334H160.717L151.52 18.4816V0H147.164V34.2734H151.52V23.9269L152.609 22.8384L162.653 34.2734H168.341L155.635 19.9334L166.405 9.16334Z" fill="#231F20"/>
</g>
<defs>
<clipPath id="clip0_1_5593">
<rect width="208.201" height="35" fill="white"/>
</clipPath>
</defs>
</svg>
